<?xml version="1.0" standalone="no"?>
<!DOCTYPE svg PUBLIC "-//W3C//DTD SVG 1.1//EN" "http://www.w3.org/Graphics/SVG/1.1/DTD/svg11.dtd" >
<svg xmlns="http://www.w3.org/2000/svg" xmlns:xlink="http://www.w3.org/1999/xlink" version="1.1">
<metadata>
Created by FontForge 20230101 at Fri Jun  6 12:32:57 1997
 By Glenn Lewis
http://members.aol.com/vroomfonde/ttf/ - Wolves, Lower Copyright (c) 1997 Tom Murphy 7- Freeware! But do not resell (on CD for instance!) - ImightbeTM@aol.com - Tom Murphy 7 - 339 Still Hill Rd - Hamden CT 06518 - USA - Chronic Town was the first EP.
</metadata>
<defs>
<font id="WolvesLower" horiz-adv-x="181" >
  <font-face 
    font-family="Wolves, Lower"
    font-weight="400"
    font-stretch="normal"
    units-per-em="1000"
    panose-1="0 0 4 0 0 0 0 0 0 0"
    ascent="800"
    descent="-200"
    x-height="563"
    cap-height="744"
    bbox="4 -198 937 901"
    underline-thickness="20"
    underline-position="-143"
    unicode-range="U+0020-2026"
  />
<missing-glyph horiz-adv-x="500" 
d="M63 0v800h375v-800h-375zM125 63h250v675h-250v-675z" />
    <glyph glyph-name=".notdef" horiz-adv-x="500" 
d="M63 0v800h375v-800h-375zM125 63h250v675h-250v-675z" />
    <glyph glyph-name=".null" horiz-adv-x="0" 
 />
    <glyph glyph-name="nonmarkingreturn" horiz-adv-x="527" 
 />
    <glyph glyph-name="space" unicode=" " horiz-adv-x="527" 
 />
    <glyph glyph-name="exclam" unicode="!" horiz-adv-x="138" 
d="M84 199q0 -4 -9 0q-9 3 -12 11l-12 46q-6 138 -18 486q5 59 10 59q23 -106 29 -293q10 -283 12 -309zM83 53q7 -26 -5 -72l-14 -13l-14 14q12 64 13.5 64.5t9 3.5t10.5 3z" />
    <glyph glyph-name="quotedbl" unicode="&#x22;" horiz-adv-x="266" 
d="M90 712q-2 -11 -2 -33v-13q0 -83 -25 -143q1 5 1 14q0 17 -6 59t-6 48v28l-30 30l9 35h41q19 -17 18 -25zM225 708q-7 -54 -12 -80q-11 -56 -32 -105q6 18 6 117v28l-30 30l8 35h42q18 -18 18 -25z" />
    <glyph glyph-name="numbersign" unicode="#" horiz-adv-x="562" 
d="M540 509q-32 -24 -141 -77q-81 -39 -89 -65q13 -79 26 -209q12 -116 11 -132v-34q-11 6 -17 6q-26 74 -38 177l-18 184q-30 5 -94 -55q0 -34 3 -102.5t3 -102.5q-3 -3 -7.5 -10t-7.5 -11q-9 7 -15 7q-3 31 -6 96t-6 96q-51 -33 -59 -37q-36 -22 -69 -36q18 15 62 63
q40 44 71 64l-5 96q-34 -16 -100 -43l6 22q34 22 99 68q-9 144 6 294q12 -94 30 -280q25 12 82 36q-2 50 -10 237q22 -36 28 -105q8 -88 17 -118q33 17 110 49h21l7 -29q-28 -12 -42 -25q10 10 2 17q-29 -17 -102 -54q2 -27 10 -76q55 29 110 59q65 33 114 46q8 -11 8 -16z
M273 397q0 42 -4 69t-4 22q-5 -3 -84 -45v-91q14 6 92 45z" />
    <glyph glyph-name="dollar" unicode="$" horiz-adv-x="548" 
d="M502 461q-4 -61 -43 -125q-23 -37 -82 -105q12 -16 43 -58q13 -37 33 -113q-4 24 -34 64q-27 36 -54 71q-10 1 -20.5 -5.5t-20.5 -12.5q33 -63 105 -184q-15 0 -23 -9q-16 30 -55.5 86t-56.5 85q-20 -16 -62 -37.5t-56 -21.5h-32q-13 -1 -35 19t-21 30q1 19 14 49
q2 5 15.5 12.5t22.5 6.5q2 0 2 -2q0 -6 -22 -27v-31l18 -18h44q26 1 96 57q-33 78 -96 220q-3 -1 -34 -12q-22 -8 -31 -8q1 0 -17 -1q-12 0 -19 1q-11 2 -18 7q-28 22 -28 82q0 17 7 55q8 49 21 78q13 16 31 45q-4 10 -19 40q12 8 18 8q0 -5 19 -39q4 0 22 18
q-4 9 -9.5 33.5t-8.5 33.5q6 -9 20.5 -32t21.5 -33q2 0 11 6q31 -4 65.5 -39t41.5 -65q-13 21 -35 43q-32 31 -58 35q-6 0 -16 -10q22 -61 71 -182h9q9 2 79 27q59 22 99 22q11 0 22 -2q15 -2 35.5 -23.5t19.5 -38.5zM456 441q2 13 -5 29q-6 13 -10 14q-17 4 -48 0
q-38 -4 -141 -48q64 -116 102 -176q29 36 59 85q38 63 43 96zM204 451q-5 46 -24 105l-36 106l-17 -16q21 -70 77 -195zM173 440q-37 112 -69 182q-18 1 -32 -56q-11 -47 -11 -85q0 -29 14 -55q2 -3 21 -7q20 -5 77 21zM331 238q-74 107 -103 186q-10 0 -14 -8
q32 -84 93 -202z" />
    <glyph glyph-name="ampersand" unicode="&#x26;" horiz-adv-x="654" 
d="M642 341q-101 -40 -114 -40h-23h-14q-7 -15 -21 -49q16 -16 47.5 -41.5t41.5 -35.5q-15 4 -48.5 23.5t-48.5 22.5q-63 -166 -174 -197q-13 -4 -24 -2q-19 2 -21 2q-41 0 -113 81q-62 71 -68 93q-17 61 -17 80q0 28 15 68q14 37 31 58q14 16 61 27q37 9 110 9
q-16 37 -31 94q-14 53 -14 68q0 24 20 77q22 58 42.5 73t58.5 30q21 8 54 3q18 -3 42 -28t33 -49q37 -92 37 -206q0 -29 -3 -86q-3 -53 -2 -80q29 4 71 16zM470 475q0 81 -18 160q-26 115 -76 115q-7 0 -15 -2q-18 -4 -37 -7q-23 -5 -32 -17q-15 -21 -26.5 -58.5
t-11.5 -63.5q0 -203 200 -257q16 89 16 130zM447 306q-11 4 -30 16t-30 16q12 -8 25 -27q15 -24 25 -33q10 10 10 28zM425 253q-49 38 -122 117q-32 34 -90 34q-55 0 -91 -31q-40 -34 -40 -92q0 -60 48 -126q45 -62 106 -94q17 -9 25 -9q14 0 35 9q66 29 103 95q30 54 26 97
z" />
    <glyph glyph-name="quotesingle" unicode="'" 
d="M123 664q-7 -58 -12 -73q-14 -47 -55 -75q2 4 17 41q12 28 12 39v28q-7 8 -30 30l9 35h42q18 -18 17 -25z" />
    <glyph glyph-name="parenleft" unicode="(" horiz-adv-x="209" 
d="M150 736q-75 -247 -75 -446q0 -17 9 -107q10 -104 18 -156q16 -40 17 -43q12 -25 30 -28q-23 -4 -54 17q-16 35 -31 156q-14 110 -14 171q0 86 37 245t63 191z" />
    <glyph glyph-name="parenright" unicode=")" horiz-adv-x="301" 
d="M234 426q0 -99 -52 -227q-62 -157 -153 -191q17 10 54 53q65 110 92 189q28 85 28 182q0 139 -122 296q-13 16 -13 42q166 -172 166 -344z" />
    <glyph glyph-name="asterisk" unicode="*" horiz-adv-x="576" 
d="M560 332q-18 -23 -18 -39l-53 13q-19 13 -55 27q-45 18 -54 23q-53 -80 -77 -142q-40 0 -59 19q0 14 7.5 54.5t7.5 57.5q-7 7 -13 29t-14 30q-48 0 -87.5 -8l-39.5 -8q-36 36 -36 58q32 32 127 64l-46 78q-34 62 -32 115h58q19 -60 108 -141q38 24 108 63h53
q8 -8 10 -35.5t10 -35.5q-45 -45 -48 -108q39 -25 78 -51q45 -32 65 -63z" />
    <glyph glyph-name="plus" unicode="+" horiz-adv-x="640" 
d="M582 459q-6 0 -38 1q-26 1 -44 1q-118 0 -190 -32q0 -19 15 -207q-9 -10 -17.5 -20t-16.5 -10q-4 82 -21 243q-29 -8 -142 -40q-85 -25 -94 -25q-15 0 -15 20q10 4 59 37h18q9 0 9 -3.5t9 -3.5q32 0 162 49q1 27 -15 90q5 89 12 89l16 -16q0 -82 20 -163q135 15 141 15
q10 0 57 -10q59 -12 75 -15z" />
    <glyph glyph-name="comma" unicode="," 
d="M102 48q-7 -58 -12 -74q-14 -46 -55 -74q2 3 17 40q12 28 12 40v28l-30 30l9 35h42q18 -18 17 -25z" />
    <glyph glyph-name="hyphen" unicode="-" horiz-adv-x="654" 
d="M633 439q-84 -10 -264 -17q-137 -6 -180 -6q-53 0 -164 11q-5 0 -6 8q0 9 5 12q85 10 172 10q40 0 81 -2t39 -2q33 0 150 -4q142 -5 167 -10z" />
    <glyph glyph-name="hyphen" unicode="&#x2010;" horiz-adv-x="654" 
d="M633 439q-84 -10 -264 -17q-137 -6 -180 -6q-53 0 -164 11q-5 0 -6 8q0 9 5 12q85 10 172 10q40 0 81 -2t39 -2q33 0 150 -4q142 -5 167 -10z" />
    <glyph glyph-name="hyphen" unicode="&#x2010;" horiz-adv-x="654" 
d="M633 439q-84 -10 -264 -17q-137 -6 -180 -6q-53 0 -164 11q-5 0 -6 8q0 9 5 12q85 10 172 10q40 0 81 -2t39 -2q33 0 150 -4q142 -5 167 -10z" />
    <glyph glyph-name="period" unicode="." horiz-adv-x="139" 
d="M95 29q-14 -18 -34 -18q-13 0 -31 18l8 55h41l16 -16v-39z" />
    <glyph glyph-name="slash" unicode="/" horiz-adv-x="457" 
d="M275 433l-234 -419l-11 -49l262 426l150 282l15 98z" />
    <glyph glyph-name="zero" unicode="0" horiz-adv-x="393" 
d="M363 475q0 -157 -21 -292q-29 -193 -91 -237h-65q-40 0 -91 87q-32 55 -49 104q-24 138 -24 171q0 114 29 219q43 150 132 202q15 20 58 54q12 2 38 11q38 -9 53 -48l18 -56q13 -171 13 -215zM334 504q0 45 -13 163q-3 48 -25 89q-6 4 -16 4q-25 0 -62 -26q0 -2 4 -10
q2 -6 -2 -10q-19 -1 -36.5 -32.5t-34.5 -61.5q-6 27 1 57q-52 -74 -78 -197q-21 -98 -21 -201q0 -42 38 -179q14 -22 37 -65q55 -60 74 -60h37q31 30 57 97q12 47 25 186q15 150 15 246z" />
    <glyph glyph-name="one" unicode="1" horiz-adv-x="478" 
d="M467 93q-39 -17 -218 -71q-14 -14 -14 -36q-11 -2 -34 21q-17 -3 -35 -3q-33 0 -86 14q34 5 113 18l6 34q-15 77 -15 127q0 207 4 366.5t4 176.5q-3 6 -10 6q-26 -34 -160 -246q5 9 57 121q32 66 92 146q13 0 26.5 -4t15.5 -4q15 -105 4 -354q-10 -228 18 -354
q69 19 206 53q4 0 13.5 -5.5t12.5 -5.5z" />
    <glyph glyph-name="two" unicode="2" horiz-adv-x="478" 
d="M439 96q4 0 4 -5q0 -16 -18 -34q-213 -9 -371 -63q-11 9 -19 9v28q275 176 275 486q0 69 -10 105q-14 54 -58 107q-13 16 -42.5 34t-43.5 18q-31 0 -62 -20q-36 -23 -49 -62q27 98 111 98q90 0 166 -121q27 -156 27 -190q0 -107 -52 -221q-55 -120 -145 -195q18 0 70 5
t60 5t45.5 4t49.5 4q9 0 32.5 4t29.5 4z" />
    <glyph glyph-name="three" unicode="3" horiz-adv-x="506" 
d="M476 266q0 -13 -41 -81q-16 -26 -92 -75q-106 -69 -225 -93q-13 -3 -37 -1q-34 2 -36 2q-6 11 -19 31h101q15 1 81 32q72 32 114 61q62 42 86 79q18 27 44 96q-7 23 -33.5 39t-53.5 16q-8 0 -14 -2q-97 -48 -149 -65l-20 10v29q78 56 141 77q96 78 96 166q0 96 -70 131
q-47 24 -142 24q-55 0 -147 -76q31 57 80 79t144 19q15 -1 54.5 -17.5t62.5 -33.5q20 -14 39 -67q12 -31 12 -63q0 -58 -66 -167q6 -4 51 -31q31 -19 48 -42z" />
    <glyph glyph-name="four" unicode="4" horiz-adv-x="421" 
d="M402 483q-6 2 -14 2q-22 0 -68 -19q-38 -15 -75 -30v-170q1 -61 26 -249q-24 16 -40 97q-13 63 -13 101q0 87 -12 206q-22 -10 -170 -103l-17 16v62q0 10 25 120q36 158 40 179l5 -29q-4 -46 -21 -159q-15 -103 -15 -110q0 -20 4 -24q50 30 154 87q0 134 18 288q8 8 15 8
q3 -46 3 -137.5t3 -136.5q41 14 129 41q8 -4 23 -15v-25z" />
    <glyph glyph-name="five" unicode="5" horiz-adv-x="506" 
d="M486 696q-28 -29 -72.5 -43.5t-119.5 -30.5q-69 -15 -84 -15q-6 0 -45 1h-59l-6 -40q6 -45 20 -140q32 8 65 52l60 84l25 -8q46 -43 75 -121q26 -72 26 -135q0 -191 -131 -243q-6 -2 -12 -2q-12 0 -62 24q-20 10 -45 33l-42 44q37 -19 74 -37.5t61 -18.5q61 0 96 84
q26 61 26 109q0 45 -24 121q-25 82 -51 100q-18 -11 -77 -77q-44 -49 -86 -51q-20 44 -20 109q0 9 1 53q1 33 0 54q-29 16 -54 16q5 0 54 16q-2 29 11 52q0 -12 15 -58q74 15 116 15q35 0 46 21q-1 -7 15 -7q9 0 86 28.5t86 28.5q14 0 32 -18z" />
    <glyph glyph-name="six" unicode="6" horiz-adv-x="475" 
d="M351 631l-10 -21l-11 5l10 20zM412 773q-34 -86 -61 -130q37 94 37 133q0 18 -10 18q-70 -65 -113 -153q-34 -77 -67 -153q-3 -5 5 -12q24 15 70 32q12 0 34.5 -15.5t32.5 -34.5q17 -30 17 -125q0 -92 -45 -182q-43 -86 -117 -151l-66 8q-49 50 -49 130q0 23 5 78
q6 50 5 78q-17 -23 -73 -79q50 106 115 195q122 358 270 423zM325 337q0 19 -9 54q-11 42 -25 61q-11 14 -27 8q-59 -24 -103 -89q-16 -44 -34 -126q-16 -75 -16 -90q0 -49 10 -73t22 -41q4 -5 18 -9t18 0q69 48 111 155q35 86 35 150z" />
    <glyph glyph-name="seven" unicode="7" horiz-adv-x="633" 
d="M608 630q0 -10 -55 -93q-95 -142 -98 -146q-21 -24 -68 -93q-47 -81 -95 -163q-60 -98 -110 -144q-12 6 -10 14q77 156 198 342q66 94 189 283l-33 11q-36 0 -85 -6.5t-53 -6.5q-9 0 -59.5 -8.5t-59.5 -8.5q-83 0 -170 -21q19 -14 19 -22q0 -3 -2 -4q-35 9 -78 27
q29 5 76 19q61 19 76 22q54 11 163 29q74 7 219 24q14 -6 36 -19v-36z" />
    <glyph glyph-name="eight" unicode="8" horiz-adv-x="485" 
d="M465 262v-21q2 -94 -56 -161.5t-147 -67.5q-94 0 -147 65q-46 57 -46 139q0 67 15 97q29 44 57 88q-32 17 -65.5 58.5t-42.5 75.5q-2 6 -2 51q0 101 163 101q12 0 63 -33.5t50 -39.5q5 -7 8.5 -22t7.5 -20q-32 43 -84 64q-38 16 -73 16q-40 0 -67 -21q-30 -23 -30 -61
q0 -37 30 -80q27 -39 60 -56h19q37 40 108 79.5t126 52.5q-72 -50 -208 -157q34 -21 102 -35q73 -16 98 -29q46 -25 61 -83zM422 190v80q-10 18 -36 44q-90 39 -210 71q-45 -57 -61 -95.5t-16 -84.5q0 -69 45.5 -114t112.5 -45q38 0 43 2q43 14 85 67q37 48 37 75z" />
    <glyph glyph-name="nine" unicode="9" horiz-adv-x="421" 
d="M391 110q0 -30 -21 -101q-27 188 -74 563q-4 -4 -4.5 -13t-3.5 -13q1 -47 -58 -95t-121 -53q-34 -2 -56.5 28.5t-27.5 59.5q-2 10 -2 55q0 85 56 151.5t135 66.5q29 0 59 -18q-11 1 -22 1q-91 0 -149 -70q-55 -66 -51 -152q1 -33 19 -59.5t41 -27.5q77 -6 130 65
q47 62 50 140q3 80 -10 148q27 -13 35 -71q20 -136 49 -371q26 -218 26 -234z" />
    <glyph glyph-name="colon" unicode=":" horiz-adv-x="139" 
d="M95 29q-14 -18 -34 -18q-13 0 -31 18l8 55h41l16 -16v-39zM97 326q-15 -18 -35 -18q-13 0 -31 18l9 55h40l17 -17v-38z" />
    <glyph glyph-name="semicolon" unicode=";" 
d="M102 48q-7 -58 -12 -74q-14 -46 -55 -74q2 3 17 40q12 28 12 40v28l-30 30l9 35h42q18 -18 17 -25zM106 217q-15 -18 -35 -18q-13 0 -31 18l9 55h40l17 -17v-38z" />
    <glyph glyph-name="less" unicode="&#x3c;" horiz-adv-x="527" 
d="M34 378q22 -34 93 -97q57 -44 209 -178q125 -111 133 -110h20q-56 75 -220 214q-103 86 -205 171q58 103 200 236q52 49 201 173q-270 -156 -431 -409z" />
    <glyph glyph-name="equal" unicode="=" horiz-adv-x="845" 
d="M802 546q-170 -4 -393 -39q-242 -38 -352 -44q-9 8 -7 13q254 79 534 79q100 0 218 -9zM802 283q-44 -4 -178 -19q-111 -12 -121 -12h-22q-186 0 -426 -14q52 26 146 39l140 12q167 16 338 16q7 0 54 -11t69 -11z" />
    <glyph glyph-name="greater" unicode="&#x3e;" horiz-adv-x="569" 
d="M527 483q0 -28 -122 -152q-67 -65 -134.5 -130.5t-134.5 -130.5q-96 -95 -97 -127q-4 12 -2 39q1 27 6 33q148 154 448 475q-69 68 -220 169q-182 122 -193 130q166 -62 442 -268q0 -2 3.5 -14.5t3.5 -23.5z" />
    <glyph glyph-name="question" unicode="?" horiz-adv-x="428" 
d="M383 475q0 -73 -29 -126q-23 -42 -73.5 -84.5t-100.5 -82.5v-17q0 -11 39 -70q42 -64 66 -71l-41 -9q-35 19 -63 72q-19 39 -37 78q3 17 14 45q15 13 37 35q157 82 157 236q0 75 -46 174q-59 127 -147 127q-56 0 -83 -60q-18 -41 -18 -94q0 -31 12 -73q11 -37 23 -74
q-1 0 9.5 -4t22.5 -3q-3 -7 -5 -15q-4 -11 -17 -15q-16 17 -43 40q-33 93 -33 148t32 112q40 69 100 69q108 0 175 -146q49 -107 49 -192zM364 -60q0 -21 -7 -35q-15 0 -27.5 3.5t-13.5 3.5q13 50 13 41q9 0 35 -13z" />
    <glyph glyph-name="at" unicode="@" horiz-adv-x="739" 
d="M710 251q0 -93 -87 -173q-83 -75 -169 -75q-8 0 -35 -5t-38 -5q-9 0 -33.5 5t-35.5 5q-86 0 -172 100q-74 86 -86 156l-12 60q-8 36 -8 61q0 13 2 26q8 63 29 106q26 53 86 116q23 24 67 38.5t82 11.5q132 -10 210 -102q70 -84 70 -199q0 -59 -20 -126q-24 -79 -63 -117
q-25 0 -34 -9q-13 6 -34 45q-16 30 -32 61q-38 -23 -75 -46q-46 -27 -59 -27q-38 0 -47 9q-18 18 -18 76q0 126 84 199q15 13 50 17q11 1 30 -9l28 -16q4 0 16.5 8t16.5 8l19 -19q0 -17 -8 -61.5t-8 -53.5q0 -18 16 -68t30 -74q60 33 60 199q0 101 -55 173q-64 83 -177 83
q-14 0 -30.5 1.5t-20.5 1.5q-22 0 -68 -37t-70 -85q-12 -23 -23.5 -60t-11.5 -52q0 -79 19 -138q69 -224 290 -224q95 0 181 52q104 63 104 163q0 51 -41 106l20 20q61 -26 61 -126zM393 399q-37 19 -48 19q-31 0 -68.5 -48.5t-37.5 -78.5v-83l45 -10q87 48 109 201z" />
    <glyph glyph-name="A" unicode="A" horiz-adv-x="386" 
d="M181 505h-18v28h18v-28zM404 375q-9 -2 -47 -21q-29 -15 -49 -15q-3 -2 -7 -5q0 1 0 -16q0 -12 36 -109.5t35 -110.5v-48q-40 33 -70 115q-28 76 -31 145q-9 4 -23 4q-34 0 -82 -19q-52 -150 -128 -286l-15 36q49 124 50 126q23 66 29 119q-2 12 -7 12q6 0 24 15.5
t24 28.5q12 25 12 54q0 17 -5 31q0 -5 11 -20q22 66 45 133q28 91 28 147q0 35 -10 60q-9 -1 -9 -11q5 21 20 52q17 -33 21 -66q6 -98 11 -196q16 -161 60 -161q11 0 39 3t38 3zM258 350q-23 166 -23 184q-9 -54 -56 -194q60 15 79 10z" />
    <glyph glyph-name="B" unicode="B" horiz-adv-x="287" 
d="M281 422q0 -88 -3 -103q-6 -45 -44 -127q1 -7 16 -33q12 -22 12 -37l-4 -6q-10 -31 -15 -43q-12 -31 -23 -45q-13 -8 -41 -13q55 55 55 80q0 54 -15 83q-52 0 -60 -56l-8 -112q-12 0 -37 34q-78 434 -78 646q0 49 25.5 104.5t55.5 75.5q72 -96 118 -220.5t46 -227.5z
M238 427q0 168 -121 401q-38 -36 -38 -154q0 -21 19.5 -174t35.5 -256q53 0 66 -14l27 25q0 27 5.5 95t5.5 77z" />
    <glyph glyph-name="C" unicode="C" horiz-adv-x="428" 
d="M425 60l-48 -46q-29 -24 -69 -24q-79 0 -150 106q-57 85 -98 217q-35 112 -35 171q0 74 21 169q32 148 96 148q14 0 35 -25q18 -23 35 -46q-32 26 -70 26q-45 0 -57 -97q-4 -31 -4 -119q0 -242 90 -386q26 -41 59 -75q43 -45 73 -45q35 0 107 72z" />
    <glyph glyph-name="D" unicode="D" horiz-adv-x="365" 
d="M125 177q-11 39 -23 78q-29 213 -72 483q0 2 1 2q6 0 14 -15q3 -5 41 -270q36 -254 39 -278zM350 144q0 -52 -32 -115q-38 -78 -93 -78q-8 0 -24.5 2.5t-24.5 2.5q-12 0 -21 -4q-9 64 -18 251q-9 191 -22 297q-21 169 -64 284q123 -311 123 -708q0 -38 -2 -76
q4 -7 7.5 -12.5t19.5 -5.5q57 0 88 70q21 48 21 92q0 144 -82 364q-86 230 -183 318q-13 -23 -12 -63v94q111 -79 216 -319q103 -234 103 -394z" />
    <glyph glyph-name="E" unicode="E" horiz-adv-x="358" 
d="M264 814q-134 -41 -147 -41q-43 0 -71 5q28 14 47 18q7 6 56 16q32 6 40 2h75zM329 97l-13 -23q-214 -84 -237 -84q-57 0 -57 172q0 -5 1 42q3 57 4 172q3 210 3 440q16 -26 28 -203q13 -191 19 -211q106 46 229 107q-20 -20 -68 -50q-59 -36 -108 -53q-20 -5 -60 -22
q-5 -144 -5 -222q0 -99 2 -131q-8 -8 17 -8q14 0 93.5 37.5t93.5 36.5h58z" />
    <glyph glyph-name="F" unicode="F" horiz-adv-x="400" 
d="M381 816q-44 -52 -99 -64q-20 -4 -91 -4q-16 0 -74 -12q-61 -13 -80 -22l56 -639q0 -47 -19 -75q-19 51 -25 126q-5 61 -30 592q47 36 125 49l128 18q70 17 109 65v-34zM280 456q-88 -47 -186 -80q1 1 56 47q39 34 52 33h78z" />
    <glyph glyph-name="G" unicode="G" horiz-adv-x="322" 
d="M203 653l1 -8l-14 31l6 2zM295 178q0 -54 -21 -103q-26 -62 -69 -62q-50 0 -93 57q-38 50 -60 126q-14 47 -24 129q-7 65 -7 94q0 71 21 185q31 165 83 164q31 -1 51 -37q17 -32 11 -42q-9 18 -17 36q-15 24 -31 24q-19 0 -37 -31q-15 -26 -22 -60q-21 -96 -21 -211
q0 -64 20 -166q24 -120 57 -166q39 -55 64 -55q22 0 36 27q11 22 12 45v110q7 7 -15 7q-12 0 -48 -35q-41 -40 -59 -49v31q-1 34 49 70q42 30 58 30q44 0 57 -50q5 -19 5 -68z" />
    <glyph glyph-name="H" unicode="H" horiz-adv-x="344" 
d="M317 416q-12 1 -23 -6.5t-22 -14.5q-17 -125 -43 -369q0 3 -1 3q3 0 -5 -4q-1 0 -1 3q-3 63 0 180q4 154 4 186q-68 2 -119 -18q-2 -32 1 -91q3 -72 3 -99q0 -76 -14 -138q-2 -2 -6 -13q-15 141 -12 350q-37 -2 -65 14v4q-1 4 3 4q17 -2 45 -3q4 2 13 13q-5 70 -2 334
q5 -33 20 -197q1 -41 5 -127q3 -6 5 -11t16 -5q9 0 54.5 4t70.5 4q0 174 30 352q4 -339 3 -349q13 -2 25 1t14 2t2 -2t-2.5 -3t-2.5 -3q2 -1 4 -1zM234 -35l-10 11v43l10 -12v-42z" />
    <glyph glyph-name="I" unicode="I" horiz-adv-x="400" 
d="M379 55q-35 -13 -104 -26l-76 -14q-11 -2 -26 -38q-8 33 -15 33q-107 0 -141 5q2 1 2 2q0 2 -4 5.5t-4 5.5q0 5 36 9q27 3 52 3q13 0 28.5 -1t24.5 -1q-15 211 -38 651h-78q29 27 90 38q58 8 116 17l22 -25q-37 -17 -76.5 -18.5t-43.5 -2.5q-13 -7 -13 -39q0 -4 20 -235
q21 -249 27 -367q7 -1 19 -1q26 0 91 7q69 7 85 7q9 0 9 -2q0 -1 -5 -5.5t-5 -5.5q1 -2 7 -2zM169 -48v13l7 3l-1 -17z" />
    <glyph glyph-name="J" unicode="J" horiz-adv-x="496" 
d="M543 790q-75 -13 -224 -35q16 -35 50 -113q47 -168 47 -267q0 -118 -38 -219q-58 -153 -190 -212q-40 -8 -99 47q-56 52 -75 106q27 -32 64 -62q45 -38 68 -38h40q94 44 147 185q40 107 40 198q0 140 -72 373q-107 -12 -155 -12q-37 0 -60 6q125 26 195 26q21 22 21 32
q2 -5 15 -21q25 0 85 2.5t93 2.5z" />
    <glyph glyph-name="K" unicode="K" horiz-adv-x="386" 
d="M364 10l-28 11q-35 78 -121 236q-103 191 -129 242q-11 -193 -16 -260q-10 -146 -24 -260q-27 -4 -27 20v220l45 617q6 -35 8 -132q2 -107 7 -157l16 -17q87 107 269 264q-37 -58 -117 -139q-73 -71 -147 -142q76 -120 151 -240q114 -183 113 -227v-36z" />
    <glyph glyph-name="L" unicode="L" horiz-adv-x="212" 
d="M213 76q-43 -30 -140 -92q-20 -4 -59 35l36 796q27 -81 27 -109v-371q0 -44 -13 -121t-13 -114q0 -45 13 -85q24 6 70 26q70 31 79 35z" />
    <glyph glyph-name="M" unicode="M" horiz-adv-x="534" 
d="M519 -44q-53 103 -115 341q-90 348 -104 392q-1 -8 -1 -20q0 -31 13 -98q17 -83 19 -102q40 -159 39 -197v-60h-40q-177 308 -278 478q28 -234 72 -695q-10 6 -20 23q-6 11 -13 23q-42 277 -70 724q116 -171 162 -240q92 -140 148 -238q-26 160 -80 473q0 18 11 40t24 30
q159 -463 233 -874zM296 709q0 7 -5 23t-5 9l-6 1l15 -40z" />
    <glyph glyph-name="N" unicode="N" horiz-adv-x="316" 
d="M293 901q4 -21 4 -48q0 -42 -10 -120q-12 -100 -14 -123q-22 -284 -22 -467q0 -62 2 -124q-20 -20 -42 -20q-54 86 -89 288q-26 169 -53 337q-13 -26 -16 -185q-1 -121 -10 -387q-11 5 -22 120q-9 97 -9 130q0 9 27 444q7 7 22 7t22 -7q26 -162 51 -325q33 -202 70 -324
q5 10 7 29q2 24 3 29q-3 43 -3 91q0 266 82 655z" />
    <glyph glyph-name="O" unicode="O" horiz-adv-x="372" 
d="M354 384q0 -300 -185 -423q-19 0 -28 -9q-75 50 -103 129q-20 55 -20 139q0 56 19 167q22 126 45 151q-7 7 -11 5q-2 0 -14 -8q-2 99 5 149q13 95 59 150q18 0 28 9q97 -37 156 -192q49 -131 49 -267zM309 384q0 185 -77 338q-11 24 -62 75h-31q-28 -40 -42 -114
q-15 -81 -24 -100q8 -8 14 -22q5 28 28 67q18 30 36 61q8 -9 3 -14q-17 -40 -52 -117l-30 -132q-18 -78 -18 -192q0 -87 9 -121q17 -64 77 -115q97 38 141 184q28 95 28 202z" />
    <glyph glyph-name="P" unicode="P" horiz-adv-x="372" 
d="M346 490q0 -101 -32 -190q-45 -127 -134 -127q-2 0 -64 16q0 -73 -37 -216q-4 5 -9 14q0 12 -8 179q2 -7 21 -104q20 71 20 101l-5 276q0 8 -15 121q-17 117 -18 144q16 -62 34 -214q19 -148 19 -209v-59q6 -6 15 -23l32 -4q89 0 128 133q23 77 23 154q0 302 -162 302
q-27 0 -51 -14q-35 -19 -41 -56q-2 30 29.5 61t62.5 31q10 0 30 -4q26 -6 34 -7q23 -17 67 -42q12 -35 43 -97q18 -90 18 -166zM60 174l-4 22l2 24l4 -13z" />
    <glyph glyph-name="Q" unicode="Q" horiz-adv-x="332" 
d="M339 -79q0 -15 -19 -15q-19 54 -67 182q-5 -6 -12 -25t-14 -28q-10 -5 -54 -35q-22 14 -49 14q-54 68 -82 205q-21 104 -21 203q0 183 66 321q-20 -51 -36 -135q-16 -88 -16 -155q0 -105 28 -241q37 -171 90 -185h26q21 0 41 46q17 38 17 49q0 8 -21 89q-24 94 -31 127
q1 -1 29 -79q18 -50 39 -70q11 79 11 145q0 96 -14 176q-14 70 -29 141q-16 29 -44 114q-9 10 -52 39q-20 -1 -42 -21t-32 -50q0 24 -3 27q17 19 33 38q21 19 45 19q43 0 84 -94q31 -71 54 -181q20 -91 18 -113q7 -146 -9 -304q66 -175 66 -204z" />
    <glyph glyph-name="R" unicode="R" horiz-adv-x="329" 
d="M276 17q-14 27 -31.5 76t-30.5 74q-23 43 -63 83q-8 -5 -52 -20q28 -172 28 -202q0 -50 -22 -60q-35 42 -36 65q12 -23 25 -23q-3 15 -26 186q-5 35 -14 106q-13 99 -35 296q-9 102 -4 143q42 26 50 26q6 0 10 -4q9 7 15 5q87 -50 125 -152q25 -68 25 -148
q0 -44 -28.5 -119.5t-48.5 -88.5q59 -38 85 -114q11 -28 28 -129zM205 471q0 189 -123 278q-26 -4 -67 -16q27 -150 72 -462q17 9 45 7q26 22 50 88q23 63 23 105zM65 42v6v0l2 -5q1 -2 -1 -2q-1 0 -1 1z" />
    <glyph glyph-name="S" unicode="S" horiz-adv-x="344" 
d="M289 698l-4 9l-2 23l2 -9q0 7 2 -5t2 -18zM318 168q0 -79 -50 -146q-48 -63 -114 -86q-91 10 -145 83q29 -16 57 -32q26 -12 62 -12q6 0 7 -2q-1 -1 -1 -3t7 -2q62 0 107 83q38 67 38 124q0 23 -22 85q-110 115 -144 168q-47 78 -47 176q0 46 14 116q8 37 48 76t77 37
q23 -6 47 -32q28 -30 23 -62q-1 30 -24.5 49t-49.5 19q-60 0 -90 -84q-19 -55 -19 -113q0 -124 56 -197q53 -50 106 -99q57 -58 57 -146z" />
    <glyph glyph-name="T" unicode="T" horiz-adv-x="584" 
d="M284 699q-2 22 -2 35q0 2 1 0q0 -7 3 -34q121 24 174 24q27 0 92 -16l25 -29q-29 14 -98 14q-86 0 -185 -22q16 -182 16 -254q0 -93 -4 -140q-5 -67 -31 -277q-4 255 12 663q-6 6 -35 6q-29 -9 -102 -20q-69 -11 -88 -11q-9 0 -26 -2.5t-25 -2.5q74 20 273 66z" />
    <glyph glyph-name="U" unicode="U" horiz-adv-x="476" 
d="M458 56q-31 58 -54 151q-3 13 -34 157q-3 1 -10 -6q-5 -54 -52 -199q-58 -180 -107 -180h-39q-26 33 -54 95q-27 93 -60 309q-34 229 -34 346q0 40 12 88q0 -313 120 -764q10 -23 41 -43q80 69 116 207q23 110 47 220q1 18 1 39q0 25 -2.5 80.5t-2.5 83.5q0 80 15 130
q13 8 20 8q20 -47 20 -119q0 -46 -9 -115t-9 -81q0 -17 26 -161q28 -157 49 -246zM376 658v63q-3 0 -5.5 -24l-2.5 -24l5 -44z" />
    <glyph glyph-name="V" unicode="V" horiz-adv-x="238" 
d="M212 767q-11 -108 -11 -129q0 -6 -12 -306q-12 -295 -11 -305q-22 -27 -40 -27q-47 234 -118 788q38 -209 126 -629q21 21 21 327q7 205 45 281z" />
    <glyph glyph-name="W" unicode="W" horiz-adv-x="370" 
d="M351 726q0 -6 -11 -104q-12 -105 -12 -157q0 -50 3 -303q1 -128 -4 -167q-13 -9 -21 -9l-19 18q-73 294 -114 500q-9 9 -17 1q11 -211 48 -535h-30q-64 168 -111 393q-51 242 -59 446q64 -414 139 -635q0 58 -10 184.5l-10 126.5q0 18 8 72q10 62 21 101
q24 -86 69.5 -258.5t70.5 -258.5q1 3 1 7q0 -6 -5 42.5t-5 120.5q0 64 4 146q13 258 64 405v-136z" />
    <glyph glyph-name="X" unicode="X" horiz-adv-x="456" 
d="M458 727q-42 -52 -105 -142q-58 -84 -116 -169q21 -48 178 -388q-50 46 -114 163q-92 168 -94 170q-60 -98 -190 -299q60 131 79 169q49 96 98 169l-80 220q-48 134 -48 147q0 2 1 2q13 0 55 -77q59 -157 95 -237q43 32 128 140q89 112 113 132zM468 740l7 7v0l-5 -9
q-1 -1 -2 0t0 2z" />
    <glyph glyph-name="Y" unicode="Y" horiz-adv-x="446" 
d="M416 404l-3 12v13l5 -15zM434 777q-22 -100 -82 -341l-13 -34q18 -15 26 -20q19 -12 38 -13q14 0 14 31q8 -32 -9 -43q-25 -3 -43 6q-23 12 -36 15q-41 -127 -136 -378q28 76 61 193q28 100 56 199q-75 71 -165 187q-85 110 -130 190q101 -116 305 -346q14 46 114 354z
" />
    <glyph glyph-name="Z" unicode="Z" horiz-adv-x="944" 
d="M937 768q-20 -35 -74 -72q-44 -31 -88 -61q-28 -21 -80 -63q-265 -248 -293 -272q-169 -151 -304 -239l16 -14l520 -3q-122 -23 -442 -23q-10 0 -54.5 4.5t-54.5 4.5q-33 0 -56 23q184 125 278 210q127 118 255 236q182 163 297 230q-357 -21 -424 -21q-90 0 -147 -15
q20 7 65 30q221 30 271 30h33q10 0 71.5 4.5t72.5 4.5q51 0 98 18zM646 47l18 6q1 -1 1 -2l-18 -6q-1 1 -1 2zM692 60l5 1q1 0 2 -1q0 -2 -2 -2l-5 -1q-1 0 -1 1q-1 2 1 2z" />
    <glyph glyph-name="bracketleft" unicode="[" horiz-adv-x="379" 
d="M340 26q-51 -5 -163 -8q-64 -2 -104 -33l-9 2q6 31 13 93q6 58 8 86q1 23 0 59q-1 61 -1 95q0 113 -24 226q-35 190 -35 181v13q5 4 5 13q25 18 43 18q4 0 66 -3q67 -3 92 -3q25 -3 70 -21q-9 6 -23 6q-232 0 -229 0l-7 -8v-24q15 -64 29 -128q30 -149 30 -280
q0 -151 -11 -268q-2 -19 2 -27q74 21 87 21q1 0 67.5 -5t93.5 -5z" />
    <glyph glyph-name="backslash" unicode="\" horiz-adv-x="457" 
d="M212 433l234 -419l11 -49l-262 426l-150 282l-15 98z" />
    <glyph glyph-name="bracketright" unicode="]" horiz-adv-x="379" 
d="M31 753q52 5 163 8q65 2 104 34l9 -3q-6 -30 -13 -93q-6 -58 -7 -86q-1 -23 -1 -58q1 -61 1 -96q0 -112 24 -226q35 -189 35 -181v-13q-4 -4 -4 -12q-26 -18 -44 -18q-4 0 -66 2q-67 3 -92 4.5t-70 19.5q9 -5 23 -5q232 0 229 0l8 7v25l-30 128q-30 149 -30 279
q0 151 11 268q2 20 -2 27q-73 -21 -87 -21l-66.5 5t-94.5 5z" />
    <glyph glyph-name="underscore" unicode="_" horiz-adv-x="654" 
d="M636 32q-84 -10 -264 -17q-137 -6 -180 -6q-53 0 -164 11q-5 0 -6 8q0 9 5 12q85 10 172 10q40 0 81 -2t39 -2q33 0 150 -4q142 -5 167 -10z" />
    <glyph glyph-name="a" unicode="a" horiz-adv-x="376" 
d="M45 653l-13 -27l-7 -5l14 35zM371 102q0 -9 -5.5 -50t-5.5 -63q-10 -3 -25 -12q-29 88 -49 270q-15 -40 -43 -124t-43 -124q-21 -15 -48 -15q-11 0 -20 5q-21 63 -21 98q0 20 24 126q25 117 49 191q61 85 98 101q9 24 9 87q0 145 -86 215q-88 -12 -160 -140q-4 35 56 98
t105 63q6 0 12 -1q43 -21 65 -79q17 -47 34 -95q16 -120 36 -334q18 -192 18 -217zM280 431v45q-40 -4 -91 -160q-48 -147 -48 -234q0 -41 20 -65q33 48 79 223q41 159 40 191z" />
    <glyph glyph-name="b" unicode="b" horiz-adv-x="408" 
d="M380 363q0 -131 -71 -284q-16 -22 -33.5 -43.5t-41.5 -17.5q-38 24 -58 82q-15 43 -29 86q-17 -37 -18 -95v-38q0 -45 -9 -74h-36q-41 120 -41 280q0 96 13 170q29 73 39 162q6 47 8 150q3 88 11 131q-1 -75 26 -318q32 47 96 79h30q13 0 36 -23q17 -19 35 -39
q6 -29 19 -53t17 -44q7 -35 7 -111zM330 393q0 76 -8 107q-17 64 -75 94q-36 -21 -51 -21q-21 -30 -62 -81l-2 -143q0 -76 26 -137q16 -38 75 -134q15 0 47 32q0 2 12 69q29 57 36 113q2 22 2 101zM98 271l1 125l-4 26l-4 -143zM95 157l2 107l-9 9l-1 -74z" />
    <glyph glyph-name="c" unicode="c" horiz-adv-x="491" 
d="M474 225q-14 -67 -102 -134q-83 -62 -159 -73q-28 -4 -62 9q-38 14 -53 37q-68 102 -68 304q0 21 9 107q10 95 20 150q13 75 41 134q11 25 43.5 48t58.5 23q33 0 58 -24q67 -65 88 -170q4 -21 4 -56v-23q0 -44 5 -78q-28 197 -135 295h-41q-53 -44 -78 -174
q-18 -94 -18 -210q0 -24 5 -79q6 -62 13 -86q9 -35 17 -71q16 -50 39 -69h75q16 0 60 27q39 25 71 52q40 34 93 87q3 -7 16 -26z" />
    <glyph glyph-name="d" unicode="d" horiz-adv-x="340" 
d="M336 -40q-37 49 -74 142q-11 -13 -37 -75q-19 -45 -57 -58h-28q-58 0 -95 134q-25 94 -25 147q0 89 30 190q42 137 115 159q4 2 17 14q-12 80 3 239q15 11 24 11q22 -90 49 -216q29 -132 29 -149v-335q0 -11 19 -84q24 -90 30 -119zM248 608q-16 120 -45 199v-52
q-2 -19 7 -75q9 -61 21 -89q9 -2 17 17zM268 517q0 14 -15.5 37t-22.5 23q-4 0 -4 -8q0 -7 3.5 -26t3.5 -26q0 -18 11 -78q11 -64 18 -64q6 0 6 142zM249 188q0 12 -28 157q-32 171 -41 232q-55 -20 -90 -124q-32 -94 -32 -199q0 -70 22 -168q11 -49 48 -79h41q18 17 48 80
q32 68 32 101z" />
    <glyph glyph-name="e" unicode="e" horiz-adv-x="477" 
d="M446 160q1 -18 -40 -55t-78 -52q-33 -13 -91 -13q-116 0 -173 149q-42 108 -38 214q5 110 51 186q57 94 160 94q40 0 91 -26q69 -37 83 -68q5 -10 5 -65q0 -92 -89 -152q-70 -48 -132 -48q-32 0 -85 26q10 5 24 6q11 1 28 1q23 -1 27 -1q57 0 116 41q66 47 79 112
q2 9 2 18q0 50 -62 80q-48 22 -98 22q-85 0 -123 -98q-24 -62 -24 -139q0 -106 36 -190q47 -110 138 -110q55 0 93 30l100 96v-58z" />
    <glyph glyph-name="f" unicode="f" horiz-adv-x="308" 
d="M277 495q-27 34 -68 125q-33 73 -68 96q-19 -19 -22 -44q-12 -107 -12 -201q0 -52 17 -121q19 0 64 -6t68 -6q-28 -23 -66 -30q-22 -4 -75 -4q1 -16 10 -108q7 -73 7 -117t-6 -74q-2 53 -17 154q-17 118 -21 155q-24 11 -58 32q13 15 50 13q3 47 1 133t1 128q5 71 27 134
h40q29 0 81 -106.5t47 -152.5zM91 208l-8 -9l-9 35l8 19zM86 188l6 13l27 -182l-11 36z" />
    <glyph glyph-name="g" unicode="g" horiz-adv-x="252" 
d="M220 23q0 -47 -6 -67q-13 -39 -56 -62q-34 8 -48 13q-30 11 -55 32q73 -19 101 -19q30 26 36 53q2 8 2 53q0 15 -14 116q-16 110 -29 182q-3 -4 -18 -68q-9 -38 -40 -70q-4 0 -15.5 3.5t-14.5 3.5q-28 69 -28 108q0 28 28 107q24 68 32 81l20 16q-25 -14 -44 -91
q-16 -64 -16 -103q0 -49 19 -94q6 -6 16 -6q25 54 35 105l14 92q2 17 -4 60q-7 49 -7 66q0 11 1 19q-3 55 23 76q15 -49 16 -123q0 -63 1 -125q51 -336 51 -358z" />
    <glyph glyph-name="h" unicode="h" horiz-adv-x="280" 
d="M252 61q-6 -9 -18 -25q-9 5 -19 10q0 6 3.5 19t3.5 23q0 76 -25 151q-14 43 -36 87q-26 50 -39 51q-10 1 -19 -20q0 -10 -3.5 -35t-3.5 -34q0 -33 17 -91q19 -69 19 -167q-20 0 -35 16q-4 31 -44 290q-32 209 -35 315q19 -93 61 -281q4 8 8 17q7 15 19 19q7 3 14 3
q24 0 42 -18q10 -10 27 -45q20 -41 42 -108q21 -63 21 -79v-98z" />
    <glyph glyph-name="i" unicode="i" 
d="M147 731q-6 -11 -18 -49.5t-18 -49.5q0 -3 10 -25.5t10 -35.5q-13 12 -52 12q0 25 -14 39q6 5 27 41q19 32 55 68zM107 65q-24 73 -51 186q-25 108 -25 131v42q0 18 11 20q-4 -1 20 -1q6 -6 13 -19t13 -18q0 -5 -5.5 -14.5t-5.5 -22.5q-1 -20 -1 -45q0 -158 31 -259z" />
    <glyph glyph-name="j" unicode="j" horiz-adv-x="400" 
d="M298 574q0 -5 -11 -11t-17 -6l-8 61q6 12 18 38q5 -27 18 -82zM383 199q0 -99 -56 -187q-62 -97 -168 -135l-45 8q-21 20 -57 66q-8 25 -29 72v16v38q10 -44 44 -91q30 -36 59 -73h27q9 0 29 11q17 10 34 19q9 10 22 23q49 36 77 108q28 69 28 146q0 43 -41 264
q17 -37 45 -109q31 -183 31 -176z" />
    <glyph glyph-name="k" unicode="k" horiz-adv-x="464" 
d="M454 19q0 -5 -11.5 -12.5t-17.5 -7.5q-175 262 -308 397q-4 -4 -10 -6.5t-10 -6.5q32 -192 32 -261q0 -25 -19 -75q-12 12 -27 51q1 85 -31 300q-32 219 -32 330q7 0 21 -9q14 -98 53 -299q108 200 179 316q22 8 61 24v-45q-49 -45 -102 -130q-44 -73 -87 -146
q19 -34 167 -205q126 -148 142 -215z" />
    <glyph glyph-name="l" unicode="l" horiz-adv-x="192" 
d="M127 721q0 -47 7.5 -195.5t7.5 -231.5q0 -141 -17 -226q-13 -63 -48 -115h-32q0 4 -2.5 19t-2.5 19q0 -13 9 -22q11 10 18 40q17 72 29 237t12 331q0 164 -13 266q11 -20 21.5 -61.5t10.5 -60.5z" />
    <glyph glyph-name="m" unicode="m" horiz-adv-x="471" 
d="M468 194q-5 -83 -49 -104q-6 26 -41 284q-24 182 -66 298q-3 9 -13 19t-16 10q-2 0 -3 -2q-51 -73 -51 -205q0 -56 15 -197q13 -129 10 -195q-12 -12 -36 -12q-27 72 -56 310q-25 214 -32 213q-16 -2 -16 -125q0 -41 2.5 -155.5t2.5 -176.5q0 -63 -2 -111
q-14 -22 -26 -22q-12 8 -21 32q-12 85 -22 287q-12 229 -19 299q14 -27 31 -95q2 3 20 59q15 49 35 65l32 -10q14 -6 45 -76q5 14 25 78q14 48 30 74q13 22 41 22q25 0 52 -44l34 -66q40 -171 77 -483q17 17 17 29z" />
    <glyph glyph-name="n" unicode="n" horiz-adv-x="322" 
d="M278 37q-11 -11 -34 -11q-11 57 -17 171q-7 134 -15 198q-16 120 -54 227q-14 24 -16 26q-8 11 -20 17q-44 -112 -44 -273q0 -60 8 -182t8 -182q0 -29 -1 -55h-14q-4 2 -23 28q-4 46 -23 299q-15 193 -14 205l-3 43q6 -5 12.5 -25t10.5 -24q14 25 28 111q12 72 52 108h31
q31 -36 53 -100q8 -22 32 -110q43 -270 43 -306v-165z" />
    <glyph glyph-name="o" unicode="o" horiz-adv-x="287" 
d="M260 313q0 -64 -23 -155q-27 -102 -60 -128q-99 41 -99 237q0 30 2 74t2 54q-16 -17 -34 1q0 7 -4.5 33.5t-4.5 38.5q0 26 20 92q20 70 36 80q15 4 30 4q11 0 22.5 -2t12.5 -2q51 -64 78 -169q22 -84 22 -158zM145 563q0 8 -8.5 20.5t-14.5 12.5q-31 -12 -35 -141
q8 28 16 57q12 33 42 51zM207 322q0 222 -48 230q-40 7 -40 -212q0 -256 39 -257q29 -1 42 106q7 63 7 133z" />
    <glyph glyph-name="p" unicode="p" horiz-adv-x="365" 
d="M342 287q0 -43 -27.5 -111.5t-52.5 -87.5q-40 -29 -75 -39h-7q-3 -9 6 -63q10 -62 10 -90q0 -34 -11 -45q-17 18 -30 97q-15 87 -24 106q-5 8 -37 32q0 12 18 29q-25 113 -58 290q-31 169 -31 187q0 46 11 75h49q130 -124 179 -189q80 -103 80 -191zM305 279
q0 87 -114 219q-50 57 -108 116q-2 1 -4 1q-7 0 -20 -13q31 -170 98 -501h29q41 0 83 80q36 68 36 98z" />
    <glyph glyph-name="q" unicode="q" horiz-adv-x="421" 
d="M452 280q-97 -135 -125 -262q-15 -66 -15 -196q-4 -6 -17 -20l-22 11q0 33 3 107t3 80q0 -8 -9 104q-1 37 -2 75q-2 45 -15 59q-12 -29 -46 -67q-39 -44 -66 -44q-58 0 -88 95q-19 63 -19 118q0 102 26 173q40 106 133 118l30 -14q20 -10 29 -20q3 3 9 14t10 11
q21 -66 28 -226q10 -257 13 -295q11 29 48 101q2 0 42.5 41.5t49.5 36.5zM256 451q0 94 -10 145q2 0 -21.5 4.5t-59.5 4.5q-52 -34 -81 -104q-25 -59 -25 -122q0 -28 7 -78q9 -66 22.5 -96t33.5 -35q32 -8 46 8q55 65 74 115q15 39 15 92v31q-1 23 -1 35z" />
    <glyph glyph-name="r" unicode="r" horiz-adv-x="202" 
d="M167 569l-10 -34q-32 36 -59 45q-35 -69 -35 -200q0 -49 5 -115q-7 -61 -5 -194q-19 -24 -35 -24q-9 52 -9 132q0 6 4 121q4 125 5 180q8 35 16 69q10 41 36 60q11 2 20 2q34 0 67 -42z" />
    <glyph glyph-name="s" unicode="s" horiz-adv-x="442" 
d="M423 294q0 -39 -97 -145q-85 -91 -113 -108q-47 -28 -92 -28q-52 0 -80 28q-3 20 3 58q13 -13 13 -28q31 -15 49 -15q59 0 157 94.5t117 172.5q-20 13 -51 13q-30 0 -84.5 -14t-68.5 -14q-41 0 -100 28v88q0 55 73 175q77 126 143 159q-46 -52 -101 -139
q-72 -117 -72 -175v-71q12 -17 58 -17q33 0 103 10.5t87 10.5q11 0 56 -19v-64z" />
    <glyph glyph-name="t" unicode="t" horiz-adv-x="287" 
d="M276 278q-28 -67 -57 -134q-39 -81 -102 -109q-9 5 -24 18q-12 49 -5 149q9 76 18 171v43q-65 8 -93 18q20 10 94 26q8 35 21.5 109t20.5 109q-2 -59 -12 -188l13 -13h21q11 0 44 12q40 15 53 18v-29q-71 -30 -118 -40q-6 -10 -19 -28q0 -34 -8.5 -127t-8.5 -96v-100
q0 -15 12 -13q22 3 72 104q8 17 67 151z" />
    <glyph glyph-name="u" unicode="u" horiz-adv-x="294" 
d="M258 139q0 -75 -14 -158q-8 -2 -21 -10q-16 25 -33 101q-22 105 -28 122h-6q-10 -90 -59 -162q-2 -3 -8 -3q-29 0 -41 21q-16 28 -20 81q-4 43 -7 85l10 373q-1 -14 -1 -36q0 -153 42 -463q3 -8 11 -8q47 88 62 262q8 140 17 280q11 10 19 10q24 -242 40 -437q0 -2 1 -4
q-10 192 -20 430q-4 -50 -4 -135q0 -59 2 -136.5t2 -74.5q0 -19 10 -86q11 -76 21 -117q25 21 25 65z" />
    <glyph glyph-name="v" unicode="v" horiz-adv-x="273" 
d="M247 232q0 -9 -4 -56q-5 -56 -6 -78q-4 -18 -23 -74h-36q-61 183 -164 668q38 -88 91 -280q60 -218 91 -302h6q2 47 -8 232q-2 37 -10 126q-7 78 -7 88v143h30q5 -88 23 -282q17 -181 17 -185z" />
    <glyph glyph-name="w" unicode="w" horiz-adv-x="393" 
d="M367 729q-22 -117 -35 -389q-10 -214 -56 -331q-6 0 -18 -9q-28 22 -41 57q-15 102 -26 260q-18 254 -19 265q-33 -112 -50 -290q-20 -214 -32 -274q-15 -15 -30 0q-20 193 -46 611q18 -37 35 -218q13 -130 18 -235l11 -13q16 145 31 290q18 137 60 205q13 8 21 8
q20 -46 27 -148q5 -86 10.5 -171.5t17.5 -263.5q3 -2 8 -11.5t10 -9.5q19 52 28 183q14 202 19 242q17 146 57 242z" />
    <glyph glyph-name="x" unicode="x" horiz-adv-x="442" 
d="M404 109q0 -6 -7.5 -12.5t-13.5 -6.5q-109 150 -168 266h-6q-62 -156 -176 -465q14 159 157 508q-20 48 -68 137q6 27 17 27q41 -60 63 -114q19 38 63 114v-35q1 -9 -18 -54t-19 -56q0 -32 141 -252q1 118 -8 195q18 -84 43 -252zM356 380l-2 26q1 2 1 1l4 -26
q-1 -1 -3 -1z" />
    <glyph glyph-name="y" unicode="y" horiz-adv-x="280" 
d="M224 509q1 -13 -26 -255q-27 -245 -49 -409q-2 140 9 377q-59 108 -147 313q42 -47 84 -128q35 -69 69 -138q6 11 8 47q15 233 52 356v-163z" />
    <glyph glyph-name="z" unicode="z" horiz-adv-x="760" 
d="M755 621l-300 -312q-177 -187 -292 -321q-4 -5 6 -15q126 80 251 160q160 99 249 125q0 -9 -9 -9q-247 -170 -521 -347l-57 13q48 119 158 248q73 86 226 230q173 164 238 234q-13 15 -41 19t-56 7q-33 6 -76 6q-42 0 -99 -6t-60 -6q-32 0 -32 -5q0 -2 4 -6q20 0 20 -19
q-29 21 -92 21q-17 0 -40.5 -1.5t-27.5 -1.5l-140 -8q-7 7 -8 20q0 12 8 20q241 28 543 31q89 1 137 -43q3 -4 4.5 -16t6.5 -18zM384 626q5 -4 12 -9.5t16 -12.5q-6 3 -11 5q-10 2 -21 8q-1 0 1 5t3 4z" />
    <glyph glyph-name="braceleft" unicode="{" horiz-adv-x="315" 
d="M284 750q-7 -13 -60 -87q-99 -138 -92 -181q4 1 9 1q11 0 32.5 -11t38.5 -13v-31q0 -8 -51 -51q-61 -50 -83 -81q9 -13 29 -15q34 -3 45 -6q4 -4 11.5 -15.5t10.5 -14.5q-27 -96 -27 -118q0 -35 33 -60q17 -12 66 -33q4 4 13 1q11 -4 12 -4q-22 -3 -36 -3q-66 0 -100 42
q-21 26 -14 78q9 23 19 63v32q-14 6 -44.5 13t-44.5 14q0 15 -8 22q20 31 61 68q53 49 70 69q-32 19 -53.5 19t-21.5 13v44q0 10 35 70.5t64 98.5q26 35 86 76z" />
    <glyph glyph-name="braceright" unicode="}" horiz-adv-x="315" 
d="M38 763q7 -13 60 -88q98 -138 92 -181q-5 1 -10 1q-11 0 -31 -10q-23 -11 -40 -14v-31q0 -8 52 -50q61 -50 83 -82q-9 -13 -29 -14q-35 -3 -45 -7q-4 -3 -11.5 -14.5t-11.5 -14.5q28 -97 28 -118q0 -36 -33 -60q-18 -13 -67 -34q-4 4 -12 1q-11 -4 -12 -4q22 -2 36 -2
q66 0 99 41q21 27 15 79q-10 22 -20 62v32q14 7 45 14t45 14q0 14 7 22q-19 31 -60 68q-53 49 -71 68q33 19 54.5 19t21.5 14v44q0 9 -35.5 69.5t-62.5 97.5t-87 78z" />
    <glyph glyph-name="quoteleft" unicode="&#x2018;" horiz-adv-x="152" 
d="M20 611q7 58 11 73q15 47 55 75q-1 -4 -17 -41q-12 -28 -12 -39v-28q8 -8 31 -30l-9 -35h-42q-18 18 -17 25z" />
    <glyph glyph-name="quoteright" unicode="&#x2019;" horiz-adv-x="124" 
d="M93 731q-7 -58 -12 -73q-14 -47 -54 -75q1 4 16 41q12 28 12 39v28q-7 8 -30 30l9 35h42q18 -18 17 -25z" />
    <glyph glyph-name="quotedblleft" unicode="&#x201c;" horiz-adv-x="237" 
d="M147 620q7 58 12 73q14 47 55 75q-1 -4 -17 -41q-12 -28 -12 -39v-28l30 -30l-9 -35h-41q-19 17 -18 25zM20 611q7 58 11 73q15 47 55 75q-1 -4 -17 -41q-12 -28 -12 -39v-28q8 -8 31 -30l-9 -35h-42q-18 18 -17 25z" />
    <glyph glyph-name="quotedblright" unicode="&#x201d;" horiz-adv-x="237" 
d="M93 731q-7 -58 -12 -73q-14 -47 -54 -75q1 4 16 41q12 28 12 39v28q-7 8 -30 30l9 35h42q18 -18 17 -25zM221 740q-7 -58 -12 -73q-15 -47 -55 -75q1 4 17 40q12 29 12 40v28l-30 30l9 35h41q19 -18 18 -25z" />
    <glyph glyph-name="ellipsis" unicode="&#x2026;" horiz-adv-x="351" 
d="M95 29q-14 -18 -34 -18q-13 0 -31 18l8 55h41l16 -16v-39zM213 30q-14 -18 -35 -18q-13 0 -30 18l8 55h40l17 -16v-39zM319 27q-14 -18 -35 -18q-13 0 -30 18l8 55h40l17 -16v-39z" />
    </font>
</defs>
</svg>
